# xmcd
#
# Track frame offsets: 
#        150
#        16925
#        36687
#
# Disc length: 780 seconds
#
# Revision: 1
# Processed by: cddbd v1.5.2PL0 Copyright (c) Steve Scherf et al.
# Submitted via: ExactAudioCopy v1.3
#
DISCID=20030a03
DTITLE=Lareine - Fleur
DYEAR=1998
DGENRE=visual kei
TTITLE0=憂いの花が綴る愛
TTITLE1=白いブーケ
TTITLE2=Fleur
EXTD=YEAR: 1998
EXTT0=
EXTT1=
EXTT2=
PLAYORDER=
